<svg width="1920" height="988" viewBox="0 0 1920 988" fill="none" xmlns="http://www.w3.org/2000/svg">
<path opacity="0.1" d="M-25 988C48.5214 979.896 118.344 948.157 168.254 900.134C218.165 852.111 247.732 788.238 250.098 723.328C251.904 673.609 238.959 620.855 263.516 575.999C280.633 544.731 314.115 521.681 328.78 489.471C350.908 440.92 325.34 383.643 345.596 334.452C366.326 284.073 428.429 257.065 487.177 242.402C545.926 227.739 609.362 219.352 657.509 186.407C729.439 137.178 743.739 35.0253 687.528 -28L-25 -28L-25 987.981L-25 988Z" fill="url(#paint0_linear_826_573)"/>
<path opacity="0.1" d="M0 227.555C1.14698 251.554 14.5326 274.631 34.775 287.539C55.0173 300.434 81.5744 302.806 103.783 293.696C132.382 281.949 151.225 253.938 178.463 239.315C211.801 221.41 252.147 226.041 289.758 230.078C327.369 234.116 368.572 236.223 399.667 214.647C441.903 185.337 449.756 123.347 489.913 91.2349C517.755 68.9775 556.249 65.0787 586.335 45.9631C632.68 16.5263 649.999 -50.8136 623.618 -99H0V227.542V227.555Z" fill="url(#paint1_linear_826_573)"/>
<path opacity="0.1" d="M971.176 -4C949.796 50.4625 960.998 118.722 988.633 168.404C1016.27 218.087 1057.81 252.162 1100.05 280.625C1142.3 309.087 1186.65 333.349 1225.26 369.198C1297.02 435.828 1347.89 541.132 1430.68 582.051C1488.02 610.369 1552.45 602.946 1612.47 585.781C1672.48 568.653 1731.08 542.218 1792.21 533.346C1853.33 524.474 1919.63 535.592 1967 585.6V-4H971.176Z" fill="url(#paint2_linear_826_573)"/>
<defs>
<linearGradient id="paint0_linear_826_573" x1="-36.5" y1="-28" x2="852.025" y2="418.755" gradientUnits="userSpaceOnUse">
<stop stop-color="#031D2D"/>
<stop offset="1" stop-color="#8438F1"/>
</linearGradient>
<linearGradient id="paint1_linear_826_573" x1="318.219" y1="-99" x2="318.003" y2="299.178" gradientUnits="userSpaceOnUse">
<stop stop-color="#031D2D"/>
<stop offset="1" stop-color="#8438F1"/>
</linearGradient>
<linearGradient id="paint2_linear_826_573" x1="1325.5" y1="-3.99999" x2="1671.96" y2="702.518" gradientUnits="userSpaceOnUse">
<stop stop-color="#031D2D"/>
<stop offset="1" stop-color="#8438F1"/>
</linearGradient>
</defs>
</svg>
