<svg width="56" height="56" viewBox="0 0 56 56" fill="none" xmlns="http://www.w3.org/2000/svg">
<g filter="url(#filter0_d_644_731)">
<circle cx="28" cy="28" r="20" fill="white"/>
</g>
<path d="M17.5 26C20.3333 25.3333 25.2 24.9 24 28.5C22.5 33 23 32 24 34C24.8 35.6 24.3333 37.3333 24 38M21 20C22.5 19.6667 26 19.4 28 21C30.5 23 30 26 37 22M39 28C39 34.0751 34.0751 39 28 39C21.9249 39 17 34.0751 17 28C17 21.9249 21.9249 17 28 17C34.0751 17 39 21.9249 39 28ZM30.3272 28.299C33.8272 27.799 35 27.5 34 30C33.0715 32.3212 30.3272 36.9657 28.3272 32.299C27.8272 31.1324 27.5272 28.699 30.3272 28.299Z" stroke="#2B266A" stroke-width="3" stroke-linecap="round" stroke-linejoin="round"/>
<defs>
<filter id="filter0_d_644_731" x="0" y="0" width="56" height="56" filterUnits="userSpaceOnUse" color-interpolation-filters="sRGB">
<feFlood flood-opacity="0" result="BackgroundImageFix"/>
<feColorMatrix in="SourceAlpha" type="matrix" values="0 0 0 0 0 0 0 0 0 0 0 0 0 0 0 0 0 0 127 0" result="hardAlpha"/>
<feOffset/>
<feGaussianBlur stdDeviation="4"/>
<feComposite in2="hardAlpha" operator="out"/>
<feColorMatrix type="matrix" values="0 0 0 0 0.517647 0 0 0 0 0.219608 0 0 0 0 0.945098 0 0 0 1 0"/>
<feBlend mode="normal" in2="BackgroundImageFix" result="effect1_dropShadow_644_731"/>
<feBlend mode="normal" in="SourceGraphic" in2="effect1_dropShadow_644_731" result="shape"/>
</filter>
</defs>
</svg>
